<svg width="610" height="854" viewBox="0 0 610 854" fill="none" xmlns="http://www.w3.org/2000/svg">
<path d="M289.583 196.035L299.846 278.541C301.945 279.846 303.582 281.436 307.883 281.436C323.973 281.436 336.349 265.657 336.349 255.003V246.869C336.349 225.548 339.546 185.869 318.049 185.869H316.015C294.165 185.869 289.434 193.354 289.583 196.035Z" fill="#F18F01"/>
<path d="M232.65 212.303C232.65 239.477 229.741 293.636 257.05 293.636H259.084C267.692 293.636 269.067 289.774 269.25 287.536C269.25 264.283 274.112 198.069 250.951 198.069C247.328 198.069 232.65 206.154 232.65 212.303ZM366.851 289.57H381.084C393.799 289.57 401.417 265.575 401.417 250.936C401.417 231.428 385.612 206.203 366.851 206.203C355.074 206.203 350.09 289.57 366.851 289.57ZM187.917 261.103V281.436C187.917 291.082 200.04 313.97 208.25 313.97C217.208 313.97 218.417 300.905 218.417 291.603V259.069C218.417 244.539 215.002 236.486 206.217 230.603C196.645 237.012 187.917 245.209 187.917 261.103Z" fill="#F18F01"/>
<path d="M242.841 78.3461C240.538 79.1018 205.947 91.4783 188.639 101.191C171.139 111.01 156.401 119.202 140.738 130.558C136.152 133.883 125.818 145.178 121.295 149.748C115.176 155.934 109.227 163.503 102.979 170.065C82.9708 191.079 82.3314 196.553 72.0167 218.403C64.7495 231.437 60.4162 244.463 58.1584 259.444C56.0895 273.163 55.7507 299.347 55.7507 313.97C55.7507 377.555 78.3184 425.613 105.168 467.886C112.109 478.815 146.508 509.094 157.906 518.848C165.739 525.551 178.707 534.35 188.561 539.027C201.185 545.018 218.24 546.908 228.599 551.895L236.717 547.805L237.248 537.68L240.784 472.571C230.244 465.513 219.241 461.671 207.056 453.431C191.783 443.103 190.051 439.768 178.246 427.341C170.115 418.782 136.435 372.053 136.435 358.512L135.05 346.503V340.404C135.05 321.358 139.877 275.258 145.182 263.101C157.441 234.997 159.51 230.401 177.88 208.365C186.014 198.608 213.764 176.52 228.15 171.203C247.581 164.019 270.932 151.303 297.717 151.303C345.8 151.303 388.218 173.992 416.467 195.218C438.467 211.749 470.55 267.532 470.55 303.804V346.504C470.55 369.404 445.198 405.417 429.378 421.231C420.832 429.775 413.509 441.411 402.264 446.985C394.731 450.718 371.701 461.188 365.311 464.518L368.883 527.47V545.771H383.116C416.169 545.771 480.322 495.093 496.172 473.791C512.031 452.477 521.913 446.611 530.756 416.876C536.475 397.644 549.85 364.936 549.85 342.436V287.536C549.85 239.458 503.457 167.555 475.397 144.422C438.314 113.849 390.02 76.0693 324.15 76.0693L271.949 75.5569L242.841 78.3463L242.841 78.3461Z" fill="#F18F01"/>
<path d="M395.317 307.868H393.283L316.016 305.835H311.95C307.19 305.835 303.817 309.209 303.817 313.969V316.003C303.817 349.802 345.015 338.369 374.984 338.369C376.327 344.138 377.016 341.845 377.016 346.502C377.016 370.233 366.368 358.333 349.866 364.085C343.999 366.13 322.304 374.969 318.05 374.969C312.111 374.969 290.813 354.906 284.847 351.623C282.837 350.569 258.617 342.435 244.85 342.435H214.35C207.21 342.435 206.217 351.458 206.217 358.702C206.217 398.661 263.15 432.298 263.15 440.036V582.37C263.15 626.327 198.968 586.436 187.917 586.436H185.883C181.142 586.436 175.717 591.862 175.717 596.603V600.669C175.717 613.895 183.841 631.09 180.713 642.166C178.123 651.337 167.584 667.793 167.584 675.903C167.584 682.512 169.345 677.438 171.65 686.07H181.817L226.414 679.178L228.584 679.97C243.252 679.97 257.05 683.608 257.05 698.27V747.07L254.97 763.329C257.392 766.883 261.597 773.504 267.217 773.504H277.384C288.485 773.504 288.649 769.436 299.751 769.436H301.784C317.155 769.436 326.539 775.537 334.317 775.537H336.351C341.843 775.537 341.957 774.565 346.517 773.504L349.002 755.271L348.551 747.07C348.551 739.471 342.45 726.697 342.45 710.47V702.337C342.45 694.297 352.62 687.613 354.651 682.004H377.017L421.779 687.926C426.723 688.903 434.649 685.566 433.951 679.97L431.629 657.639C429.459 653.933 427.85 654.029 427.85 649.47V647.436L432.186 600.699L427.444 597.01L370.893 602.491L352.617 602.703C346.875 602.703 344.773 598.037 342.45 594.57L339.931 547.833C338.837 522.528 344.591 493.714 344.481 464.433C344.377 436.669 360.246 420.743 377.94 410.458C397.201 399.262 418.24 393.223 419.718 364.803C420.98 340.537 423.417 307.868 395.317 307.868Z" fill="#F18F01"/>
</svg>
